<svg width="40" height="40" viewBox="0 0 40 40" fill="none" xmlns="http://www.w3.org/2000/svg">
<path d="M31.1252 14.8571L21.7037 5.37714C21.4643 5.13596 21.1395 5.0003 20.8007 5H13.1852C11.9426 5 10.7509 5.49668 9.87226 6.38078C8.99362 7.26488 8.5 8.46398 8.5 9.71429V30.2857C8.5 31.536 8.99362 32.7351 9.87226 33.6192C10.7509 34.5033 11.9426 35 13.1852 35H26.8148C28.0574 35 29.2491 34.5033 30.1277 33.6192C31.0064 32.7351 31.5 31.536 31.5 30.2857V15.7143C31.4866 15.3913 31.3528 15.0853 31.1252 14.8571ZM22.1296 9.38857L27.1385 14.4286H22.1296V9.38857ZM26.8148 32.4286H13.1852C12.6204 32.4286 12.0787 32.2028 11.6793 31.8009C11.2799 31.3991 11.0556 30.854 11.0556 30.2857V9.71429C11.0556 9.14596 11.2799 8.60092 11.6793 8.19906C12.0787 7.79719 12.6204 7.57143 13.1852 7.57143H19.5741V15.7143C19.5785 16.0539 19.7145 16.3784 19.9532 16.6185C20.1919 16.8587 20.5143 16.9956 20.8519 17H28.9444V30.2857C28.9444 30.854 28.7201 31.3991 28.3207 31.8009C27.9213 32.2028 27.3796 32.4286 26.8148 32.4286Z" fill="white"/>
<path d="M22.4246 25.0396C21.4267 24.4117 20.6757 23.4574 20.2986 22.3382C20.648 21.2911 20.7535 20.1777 20.607 19.0834C20.5602 18.8077 20.4261 18.5545 20.2246 18.3612C20.0231 18.1679 19.7649 18.0447 19.4881 18.0101C19.2114 17.9754 18.9309 18.031 18.6881 18.1686C18.4454 18.3062 18.2533 18.5186 18.1402 18.7742C17.9555 20.0898 18.0948 21.4308 18.5459 22.6799C17.9296 24.1238 17.2417 25.536 16.4849 26.9111C15.3327 27.5621 13.7585 28.5385 13.5151 29.6614C13.3203 30.5727 15.0243 32.9161 17.9293 27.8387C19.2216 27.3599 20.5445 26.9684 21.889 26.667C22.8829 27.2381 23.9922 27.5774 25.1348 27.6597C25.397 27.6665 25.6555 27.5955 25.8776 27.4554C26.0997 27.3154 26.2756 27.1126 26.3831 26.8726C26.4906 26.6326 26.525 26.3661 26.4819 26.1065C26.4388 25.847 26.3202 25.606 26.1409 25.4139C25.4593 24.7142 23.4308 24.9094 22.4246 25.0396ZM14.6673 29.9218C15.1214 29.1409 15.7221 28.4556 16.4362 27.9038C15.3327 29.6614 14.6673 29.9706 14.6673 29.938V29.9218ZM19.4061 18.8393C19.828 18.8393 19.7955 20.7108 19.5034 21.2153C19.2852 20.4475 19.2519 19.6388 19.4061 18.8556V18.8393ZM17.9942 26.7809C18.5428 25.7744 19.0201 24.7302 19.4223 23.6564C19.8531 24.458 20.4508 25.1574 21.175 25.7069C20.0862 25.9807 19.0223 26.3454 17.9942 26.7972V26.7809ZM25.6216 26.488C25.6216 26.488 25.3295 26.846 23.4632 26.0323C25.4918 25.9021 25.8326 26.3741 25.6216 26.5043V26.488Z" fill="white"/>
</svg>
