<svg width="38" height="38" viewBox="0 0 38 38" fill="none" xmlns="http://www.w3.org/2000/svg">
<path d="M24.9375 20.5833C24.9375 20.2684 24.8124 19.9663 24.5897 19.7436C24.367 19.5209 24.0649 19.3958 23.75 19.3958H14.25C13.9351 19.3958 13.633 19.5209 13.4103 19.7436C13.1876 19.9663 13.0625 20.2684 13.0625 20.5833C13.0625 20.8983 13.1876 21.2003 13.4103 21.423C13.633 21.6457 13.9351 21.7708 14.25 21.7708H23.75C24.0649 21.7708 24.367 21.6457 24.5897 21.423C24.8124 21.2003 24.9375 20.8983 24.9375 20.5833ZM24.9375 26.9167C24.9375 26.6017 24.8124 26.2997 24.5897 26.077C24.367 25.8543 24.0649 25.7292 23.75 25.7292H14.25C13.9351 25.7292 13.633 25.8543 13.4103 26.077C13.1876 26.2997 13.0625 26.6017 13.0625 26.9167C13.0625 27.2316 13.1876 27.5337 13.4103 27.7564C13.633 27.9791 13.9351 28.1042 14.25 28.1042H23.75C24.0649 28.1042 24.367 27.9791 24.5897 27.7564C24.8124 27.5337 24.9375 27.2316 24.9375 26.9167Z" fill="white"/>
<path fill-rule="evenodd" clip-rule="evenodd" d="M11.0837 3.5625C9.92886 3.5625 8.82136 4.02124 8.0048 4.83781C7.18823 5.65437 6.72949 6.76187 6.72949 7.91667V30.0833C6.72949 31.2381 7.18823 32.3456 8.0048 33.1622C8.82136 33.9788 9.92886 34.4375 11.0837 34.4375H26.917C28.0718 34.4375 29.1793 33.9788 29.9959 33.1622C30.8124 32.3456 31.2712 31.2381 31.2712 30.0833V12.616C31.2712 12.0127 31.0748 11.4269 30.7107 10.9456L25.9638 4.66292C25.7056 4.3211 25.3715 4.04383 24.988 3.8529C24.6045 3.66196 24.1819 3.56256 23.7535 3.5625H11.0837ZM9.10449 7.91667C9.10449 6.82417 9.99116 5.9375 11.0837 5.9375H22.5628V12.8994C22.5628 13.5549 23.0948 14.0869 23.7503 14.0869H28.8962V30.0833C28.8962 31.1758 28.0095 32.0625 26.917 32.0625H11.0837C9.99116 32.0625 9.10449 31.1758 9.10449 30.0833V7.91667Z" fill="white"/>
</svg>
