<svg width="193" height="193" viewBox="0 0 193 193" fill="none" xmlns="http://www.w3.org/2000/svg">
<path d="M141.169 48.998C141.778 49.5819 142.263 50.2829 142.596 51.0586C142.887 51.7374 143.056 52.4614 143.095 53.1973L143.105 53.5134L142.987 125.056L142.986 125.069L142.987 125.082C143.015 125.922 142.873 126.759 142.571 127.543C142.269 128.328 141.812 129.043 141.229 129.648C140.645 130.252 139.946 130.734 139.173 131.063C138.399 131.393 137.568 131.564 136.727 131.566C135.887 131.569 135.055 131.402 134.28 131.076C133.505 130.751 132.804 130.274 132.217 129.673C131.63 129.071 131.169 128.358 130.863 127.575C130.556 126.793 130.41 125.957 130.433 125.117L130.434 125.108L130.433 125.098L130.584 71.0672L130.589 69.1234L60.0083 142.821C58.8564 144.024 57.2739 144.72 55.6089 144.756C53.9439 144.792 52.3322 144.165 51.1294 143.013C49.9266 141.861 49.231 140.278 49.1951 138.613C49.1591 136.948 49.7857 135.337 50.9376 134.134L121.518 60.4364L119.577 60.5253L65.62 63.008C63.991 63.0225 62.4195 62.4043 61.2383 61.282C60.0545 60.1572 59.3556 58.6147 59.2895 56.9831C59.2236 55.3515 59.7961 53.7581 60.8851 52.5413C61.9059 51.4008 63.3056 50.6749 64.8186 50.494L65.1232 50.4654L136.574 47.2587C137.417 47.2249 138.259 47.3617 139.048 47.6604C139.837 47.9593 140.559 48.4142 141.169 48.998Z" stroke="white" stroke-width="1.55532"/>
</svg>
