<svg width="48" height="37" viewBox="0 0 48 37" fill="none" xmlns="http://www.w3.org/2000/svg">
<mask id="path-1-outside-1_50_45" maskUnits="userSpaceOnUse" x="-0.73826" y="-1.39214" width="48.7438" height="38.944" fill="black">
<rect fill="white" x="-0.73826" y="-1.39214" width="48.7438" height="38.944"/>
<path d="M1.00402 14.7918C0.834659 6.24944 5.91869 1.15566 13.5972 1.00343C21.2757 0.851199 26.5576 5.73946 26.727 14.2818L26.883 22.1522C27.0581 30.9825 21.9683 35.7883 14.2898 35.9406C6.61134 36.0928 1.33512 31.4925 1.16005 22.6622L1.00402 14.7918ZM7.33306 14.3782L7.50052 22.8246C7.59471 27.5756 9.81042 30.3643 14.1776 30.2777C18.6887 30.1882 20.6443 27.1249 20.554 22.5658L20.3865 14.1194C20.2942 9.46435 17.6927 6.58735 13.7095 6.66632C9.58226 6.74814 7.24458 9.9151 7.33306 14.3782ZM36.5357 1.22079L46.1339 1.0305L46.7999 34.6239L40.4651 34.7495L39.9323 7.87477L39.3564 7.88619L34.8208 16.4258L28.1981 16.5571L36.5357 1.22079Z"/>
</mask>
<path d="M1.00402 14.7918L2.00382 14.7719C1.92318 10.7043 3.09175 7.56671 5.08767 5.43474C7.08202 3.30445 9.99859 2.07497 13.617 2.00323L13.5972 1.00343L13.5774 0.00362622C9.51728 0.0841198 6.05259 1.47764 3.62764 4.06788C1.20427 6.65644 -0.0845001 10.3369 0.00421249 14.8116L1.00402 14.7918ZM13.5972 1.00343L13.617 2.00323C17.2354 1.9315 20.1984 3.04441 22.2756 5.09398C24.3545 7.14516 25.6465 10.2339 25.7272 14.3016L26.727 14.2818L27.7268 14.262C27.6381 9.78732 26.2044 6.16079 23.6804 3.67032C21.1546 1.17823 17.6374 -0.0768673 13.5774 0.00362622L13.5972 1.00343ZM26.727 14.2818L25.7272 14.3016L25.8832 22.1721L26.883 22.1522L27.8828 22.1324L27.7268 14.262L26.727 14.2818ZM26.883 22.1522L25.8832 22.1721C25.9668 26.3913 24.794 29.522 22.8069 31.6115C20.8195 33.7013 17.9047 34.8687 14.27 34.9408L14.2898 35.9406L14.3097 36.9404C18.3535 36.8602 21.8228 35.5486 24.2561 32.9898C26.6898 30.4308 27.9742 26.7434 27.8828 22.1324L26.883 22.1522ZM14.2898 35.9406L14.27 34.9408C10.6353 35.0128 7.67653 33.9619 5.60791 31.9525C3.53954 29.9434 2.24351 26.8617 2.15986 22.6424L1.16005 22.6622L0.160249 22.682C0.251665 27.293 1.68127 30.9266 4.2144 33.3871C6.74729 35.8475 10.2658 37.0205 14.3097 36.9404L14.2898 35.9406ZM1.16005 22.6622L2.15986 22.6424L2.00382 14.7719L1.00402 14.7918L0.00421249 14.8116L0.160249 22.682L1.16005 22.6622ZM7.33306 14.3782L6.33326 14.398L6.50071 22.8444L7.50052 22.8246L8.50032 22.8047L8.33287 14.3584L7.33306 14.3782ZM7.50052 22.8246L6.50071 22.8444C6.55045 25.353 7.16127 27.5002 8.4816 29.0209C9.82778 30.5713 11.7844 31.3253 14.1974 31.2775L14.1776 30.2777L14.1577 29.2779C12.2036 29.3166 10.8688 28.7197 9.99177 27.7096C9.08891 26.6698 8.54478 25.0472 8.50032 22.8047L7.50052 22.8246ZM14.1776 30.2777L14.1974 31.2775C16.6945 31.228 18.6214 30.3403 19.8824 28.7096C21.1148 27.1158 21.6015 24.9526 21.5538 22.546L20.554 22.5658L19.5541 22.5856C19.5968 24.738 19.1508 26.3861 18.3002 27.4861C17.4782 28.5493 16.1717 29.2379 14.1577 29.2779L14.1776 30.2777ZM20.554 22.5658L21.5538 22.546L21.3863 14.0996L20.3865 14.1194L19.3867 14.1393L19.5541 22.5856L20.554 22.5658ZM20.3865 14.1194L21.3863 14.0996C21.3367 11.5969 20.6096 9.46195 19.251 7.94938C17.8784 6.42119 15.943 5.62184 13.6896 5.66651L13.7095 6.66632L13.7293 7.66612C15.4591 7.63183 16.8161 8.23149 17.7631 9.28583C18.7242 10.3558 19.344 11.9869 19.3867 14.1393L20.3865 14.1194ZM13.7095 6.66632L13.6896 5.66651C11.3522 5.71286 9.44835 6.64557 8.1599 8.25411C6.88859 9.84123 6.28565 11.9967 6.33326 14.398L7.33306 14.3782L8.33287 14.3584C8.29199 12.2966 8.81365 10.6371 9.72086 9.50446C10.6109 8.39328 11.9395 7.7016 13.7293 7.66612L13.7095 6.66632ZM36.5357 1.22079L36.5159 0.220987L35.9348 0.232508L35.6572 0.743157L36.5357 1.22079ZM46.1339 1.0305L47.1337 1.01068L47.1138 0.0108767L46.114 0.0306984L46.1339 1.0305ZM46.7999 34.6239L46.8197 35.6237L47.8195 35.6039L47.7997 34.6041L46.7999 34.6239ZM40.4651 34.7495L39.4653 34.7693L39.4851 35.7691L40.4849 35.7493L40.4651 34.7495ZM39.9323 7.87477L40.9321 7.85495L40.9123 6.85515L39.9125 6.87497L39.9323 7.87477ZM39.3564 7.88619L39.3366 6.88639L38.749 6.89804L38.4733 7.41712L39.3564 7.88619ZM34.8208 16.4258L34.8406 17.4256L35.4283 17.4139L35.704 16.8948L34.8208 16.4258ZM28.1981 16.5571L27.3195 16.0794L26.4978 17.591L28.2179 17.5569L28.1981 16.5571ZM36.5357 1.22079L36.5556 2.22059L46.1537 2.03031L46.1339 1.0305L46.114 0.0306984L36.5159 0.220987L36.5357 1.22079ZM46.1339 1.0305L45.1341 1.05032L45.8001 34.6437L46.7999 34.6239L47.7997 34.6041L47.1337 1.01068L46.1339 1.0305ZM46.7999 34.6239L46.7801 33.6241L40.4453 33.7497L40.4651 34.7495L40.4849 35.7493L46.8197 35.6237L46.7999 34.6239ZM40.4651 34.7495L41.4649 34.7297L40.9321 7.85495L39.9323 7.87477L38.9325 7.8946L39.4653 34.7693L40.4651 34.7495ZM39.9323 7.87477L39.9125 6.87497L39.3366 6.88639L39.3564 7.88619L39.3762 8.886L39.9521 8.87458L39.9323 7.87477ZM39.3564 7.88619L38.4733 7.41712L33.9376 15.9567L34.8208 16.4258L35.704 16.8948L40.2396 8.35526L39.3564 7.88619ZM34.8208 16.4258L34.801 15.426L28.1783 15.5573L28.1981 16.5571L28.2179 17.5569L34.8406 17.4256L34.8208 16.4258ZM28.1981 16.5571L29.0767 17.0347L37.4143 1.69842L36.5357 1.22079L35.6572 0.743157L27.3195 16.0794L28.1981 16.5571Z" fill="#DEDEDE" mask="url(#path-1-outside-1_50_45)"/>
</svg>
