<svg width="56" height="38" viewBox="0 0 56 38" fill="none" xmlns="http://www.w3.org/2000/svg">
<mask id="path-1-outside-1_52_8" maskUnits="userSpaceOnUse" x="-0.73826" y="-0.991114" width="56.7422" height="39.1026" fill="black">
<rect fill="white" x="-0.73826" y="-0.991114" width="56.7422" height="39.1026"/>
<path d="M1.00402 15.3514C0.834659 6.80904 5.91869 1.71526 13.5972 1.56303C21.2757 1.4108 26.5576 6.29906 26.727 14.8414L26.883 22.7118C27.0581 31.5421 21.9683 36.3479 14.2898 36.5002C6.61134 36.6524 1.33512 32.0521 1.16005 23.2218L1.00402 15.3514ZM7.33306 14.9378L7.50052 23.3842C7.59471 28.1352 9.81042 30.9239 14.1776 30.8373C18.6887 30.7478 20.6443 27.6845 20.554 23.1254L20.3865 14.679C20.2942 10.0239 17.6927 7.14695 13.7095 7.22592C9.58226 7.30774 7.24458 10.4747 7.33306 14.9378ZM29.4638 13.1548C29.3078 5.28435 35.0347 1.13802 41.8494 1.00291C48.3761 0.873517 54.0747 4.98537 54.2117 11.896C54.343 18.5187 50.4207 21.6691 43.4013 23.5846C38.722 24.8776 36.2465 25.9349 36.3083 29.0543L36.3197 29.6301L54.3642 29.2724L54.4784 35.0313L30.0992 35.5146L29.985 29.7557C29.8641 23.6609 34.1723 20.5989 40.3298 18.7965C45.1032 17.4056 47.9512 15.7649 47.8732 11.8296C47.8075 8.51829 45.513 6.5954 42.0576 6.6639C38.6023 6.7324 35.7139 8.75805 35.8005 13.1252L35.8214 14.181L29.4867 14.3066L29.4638 13.1548Z"/>
</mask>
<path d="M1.00402 15.3514L2.00382 15.3315C1.92318 11.2639 3.09175 8.12631 5.08767 5.99434C7.08202 3.86405 9.99859 2.63457 13.617 2.56283L13.5972 1.56303L13.5774 0.563227C9.51728 0.643721 6.05259 2.03724 3.62764 4.62748C1.20427 7.21604 -0.0845001 10.8965 0.0042125 15.3712L1.00402 15.3514ZM13.5972 1.56303L13.617 2.56283C17.2354 2.4911 20.1984 3.60401 22.2756 5.65358C24.3545 7.70477 25.6465 10.7935 25.7272 14.8612L26.727 14.8414L27.7268 14.8216C27.6381 10.3469 26.2044 6.72039 23.6804 4.22992C21.1546 1.73783 17.6374 0.482734 13.5774 0.563227L13.5972 1.56303ZM26.727 14.8414L25.7272 14.8612L25.8832 22.7317L26.883 22.7118L27.8828 22.692L27.7268 14.8216L26.727 14.8414ZM26.883 22.7118L25.8832 22.7317C25.9668 26.9509 24.794 30.0816 22.8069 32.1711C20.8195 34.2609 17.9047 35.4283 14.27 35.5004L14.2898 36.5002L14.3097 37.5C18.3535 37.4198 21.8228 36.1082 24.2561 33.5494C26.6898 30.9904 27.9742 27.303 27.8828 22.692L26.883 22.7118ZM14.2898 36.5002L14.27 35.5004C10.6353 35.5724 7.67653 34.5215 5.60791 32.5121C3.53954 30.503 2.24351 27.4213 2.15986 23.202L1.16005 23.2218L0.160249 23.2416C0.251665 27.8526 1.68127 31.4862 4.2144 33.9467C6.74729 36.4071 10.2658 37.5801 14.3097 37.5L14.2898 36.5002ZM1.16005 23.2218L2.15986 23.202L2.00382 15.3315L1.00402 15.3514L0.0042125 15.3712L0.160249 23.2416L1.16005 23.2218ZM7.33306 14.9378L6.33326 14.9576L6.50071 23.404L7.50052 23.3842L8.50032 23.3643L8.33287 14.918L7.33306 14.9378ZM7.50052 23.3842L6.50071 23.404C6.55045 25.9126 7.16127 28.0599 8.4816 29.5805C9.82778 31.1309 11.7844 31.8849 14.1974 31.8371L14.1776 30.8373L14.1577 29.8375C12.2036 29.8762 10.8688 29.2793 9.99177 28.2692C9.08891 27.2294 8.54478 25.6068 8.50032 23.3643L7.50052 23.3842ZM14.1776 30.8373L14.1974 31.8371C16.6945 31.7876 18.6214 30.8999 19.8824 29.2692C21.1148 27.6754 21.6015 25.5122 21.5538 23.1056L20.554 23.1254L19.5541 23.1452C19.5968 25.2976 19.1508 26.9457 18.3002 28.0457C17.4782 29.1089 16.1717 29.7975 14.1577 29.8375L14.1776 30.8373ZM20.554 23.1254L21.5538 23.1056L21.3863 14.6592L20.3865 14.679L19.3867 14.6989L19.5541 23.1452L20.554 23.1254ZM20.3865 14.679L21.3863 14.6592C21.3367 12.1565 20.6096 10.0216 19.251 8.50898C17.8784 6.9808 15.943 6.18144 13.6896 6.22611L13.7095 7.22592L13.7293 8.22572C15.4591 8.19143 16.8161 8.79109 17.7631 9.84543C18.7242 10.9154 19.344 12.5465 19.3867 14.6989L20.3865 14.679ZM13.7095 7.22592L13.6896 6.22611C11.3522 6.27246 9.44835 7.20517 8.1599 8.81371C6.88859 10.4008 6.28565 12.5563 6.33326 14.9576L7.33306 14.9378L8.33287 14.918C8.29199 12.8562 8.81365 11.1967 9.72086 10.0641C10.6109 8.95288 11.9395 8.2612 13.7293 8.22572L13.7095 7.22592ZM43.4013 23.5846L43.138 22.6199L43.1349 22.6207L43.4013 23.5846ZM36.3197 29.6301L35.3199 29.65L35.3398 30.6498L36.3396 30.6299L36.3197 29.6301ZM54.3642 29.2724L55.364 29.2526L55.3442 28.2528L54.3444 28.2726L54.3642 29.2724ZM54.4784 35.0313L54.4982 36.0311L55.498 36.0113L55.4782 35.0115L54.4784 35.0313ZM30.0992 35.5146L29.0993 35.5344L29.1192 36.5342L30.119 36.5144L30.0992 35.5146ZM40.3298 18.7965L40.05 17.8365L40.0489 17.8368L40.3298 18.7965ZM35.8214 14.181L35.8412 15.1808L36.841 15.161L36.8212 14.1612L35.8214 14.181ZM29.4867 14.3066L28.4868 14.3264L28.5067 15.3262L29.5065 15.3064L29.4867 14.3066ZM29.4638 13.1548L30.4636 13.135C30.3909 9.46658 31.6802 6.74924 33.7115 4.92146C35.762 3.07632 38.6504 2.06653 41.8692 2.00272L41.8494 1.00291L41.8296 0.00310974C38.2337 0.074399 34.8513 1.20533 32.3737 3.43475C29.8768 5.68152 28.3807 8.97258 28.464 13.1746L29.4638 13.1548ZM41.8494 1.00291L41.8692 2.00272C47.9849 1.88147 53.0885 5.68869 53.2119 11.9158L54.2117 11.896L55.2115 11.8762C55.061 4.28205 48.7673 -0.134435 41.8296 0.00310974L41.8494 1.00291ZM54.2117 11.896L53.2119 11.9158C53.2731 15.0026 52.3989 17.1688 50.7784 18.8009C49.1185 20.4727 46.5822 21.68 43.138 22.6199L43.4013 23.5846L43.6646 24.5493C47.2398 23.5737 50.1743 22.248 52.1977 20.2101C54.2604 18.1325 55.2816 15.4121 55.2115 11.8762L54.2117 11.896ZM43.4013 23.5846L43.1349 22.6207C40.8167 23.2613 38.8674 23.8848 37.5134 24.8084C36.8145 25.2852 36.2387 25.8636 35.8494 26.5962C35.459 27.3309 35.2903 28.1564 35.3085 29.0741L36.3083 29.0543L37.3081 29.0344C37.2954 28.3924 37.413 27.916 37.6156 27.5347C37.8193 27.1514 38.1432 26.7998 38.6404 26.4606C39.6785 25.7525 41.3066 25.2009 43.6676 24.5485L43.4013 23.5846ZM36.3083 29.0543L35.3085 29.0741L35.3199 29.65L36.3197 29.6301L37.3195 29.6103L37.3081 29.0344L36.3083 29.0543ZM36.3197 29.6301L36.3396 30.6299L54.384 30.2722L54.3642 29.2724L54.3444 28.2726L36.2999 28.6303L36.3197 29.6301ZM54.3642 29.2724L53.3644 29.2922L53.4786 35.0511L54.4784 35.0313L55.4782 35.0115L55.364 29.2526L54.3642 29.2724ZM54.4784 35.0313L54.4585 34.0315L30.0793 34.5148L30.0992 35.5146L30.119 36.5144L54.4982 36.0311L54.4784 35.0313ZM30.0992 35.5146L31.099 35.4948L30.9848 29.7359L29.985 29.7557L28.9852 29.7756L29.0993 35.5344L30.0992 35.5146ZM29.985 29.7557L30.9848 29.7359C30.9298 26.964 31.8679 24.9453 33.4944 23.389C35.1586 21.7966 37.5983 20.638 40.6107 19.7563L40.3298 18.7965L40.0489 17.8368C36.9038 18.7574 34.1107 20.0311 32.1117 21.944C30.0749 23.893 28.9193 26.4527 28.9852 29.7756L29.985 29.7557ZM40.3298 18.7965L40.6095 19.7566C43.0127 19.0564 45.0906 18.2533 46.5587 17.0373C48.0966 15.7634 48.9179 14.0765 48.873 11.8098L47.8732 11.8296L46.8734 11.8495C46.9064 13.518 46.3428 14.6191 45.2828 15.4971C44.153 16.433 42.4202 17.1458 40.05 17.8365L40.3298 18.7965ZM47.8732 11.8296L48.873 11.8098C48.8354 9.91574 48.1509 8.32445 46.8946 7.22639C45.6503 6.13878 43.9503 5.62618 42.0378 5.66409L42.0576 6.6639L42.0775 7.6637C43.6203 7.63311 44.7952 8.04771 45.5784 8.73226C46.3497 9.40635 46.8453 10.4322 46.8734 11.8495L47.8732 11.8296ZM42.0576 6.6639L42.0378 5.66409C40.1299 5.70192 38.2864 6.28212 36.9206 7.54955C35.5363 8.83417 34.7527 10.7234 34.8007 13.145L35.8005 13.1252L36.8003 13.1054C36.7617 11.1598 37.379 9.85269 38.2811 9.01557C39.2017 8.16126 40.53 7.69438 42.0775 7.6637L42.0576 6.6639ZM35.8005 13.1252L34.8007 13.145L34.8216 14.2008L35.8214 14.181L36.8212 14.1612L36.8003 13.1054L35.8005 13.1252ZM35.8214 14.181L35.8016 13.1812L29.4668 13.3068L29.4867 14.3066L29.5065 15.3064L35.8412 15.1808L35.8214 14.181ZM29.4867 14.3066L30.4865 14.2868L30.4636 13.135L29.4638 13.1548L28.464 13.1746L28.4868 14.3264L29.4867 14.3066Z" fill="#DEDEDE" mask="url(#path-1-outside-1_52_8)"/>
</svg>
