<svg width="56" height="38" viewBox="0 0 56 38" fill="none" xmlns="http://www.w3.org/2000/svg">
<mask id="path-1-outside-1_52_35" maskUnits="userSpaceOnUse" x="-0.73826" y="-1.41509" width="56.7422" height="39.1026" fill="black">
<rect fill="white" x="-0.73826" y="-1.41509" width="56.7422" height="39.1026"/>
<path d="M1.00402 14.9274C0.834659 6.38506 5.91869 1.29128 13.5972 1.13905C21.2757 0.986819 26.5576 5.87508 26.727 14.4174L26.883 22.2879C27.0581 31.1181 21.9683 35.924 14.2898 36.0762C6.61134 36.2284 1.33512 31.6281 1.16005 22.7978L1.00402 14.9274ZM7.33306 14.5138L7.50052 22.9602C7.59471 27.7113 9.81042 30.4999 14.1776 30.4133C18.6887 30.3239 20.6443 27.2605 20.554 22.7014L20.3865 14.2551C20.2942 9.59997 17.6927 6.72297 13.7095 6.80194C9.58226 6.88376 7.24458 10.0507 7.33306 14.5138ZM29.7211 1.49152L53.5244 1.0196L53.6348 6.58651L44.4749 14.3536L44.4864 14.9295L45.7341 14.9047C50.3892 14.8125 54.6281 17.9451 54.749 24.0399C54.8841 30.8545 49.7886 35.3724 42.3021 35.5208C34.2877 35.6797 29.3464 31.0247 29.2142 24.3541L29.1875 23.0103L35.5223 22.8847L35.5451 24.0365C35.6098 27.2999 37.9186 29.9426 42.1898 29.8579C46.173 29.779 48.4779 27.3808 48.4142 24.1654C48.3504 20.9501 46.0635 19.4111 42.8481 19.4748L36.9933 19.5909L36.881 13.928L45.0483 6.94878L29.8353 7.25038L29.7211 1.49152Z"/>
</mask>
<path d="M1.00402 14.9274L2.00382 14.9076C1.92318 10.8399 3.09175 7.70233 5.08767 5.57036C7.08202 3.44007 9.99859 2.21059 13.617 2.13885L13.5972 1.13905L13.5774 0.139246C9.51728 0.21974 6.05259 1.61326 3.62764 4.2035C1.20427 6.79205 -0.0845001 10.4726 0.0042125 14.9472L1.00402 14.9274ZM13.5972 1.13905L13.617 2.13885C17.2354 2.06712 20.1984 3.18003 22.2756 5.2296C24.3545 7.28078 25.6465 10.3695 25.7272 14.4372L26.727 14.4174L27.7268 14.3976C27.6381 9.92294 26.2044 6.29641 23.6804 3.80594C21.1546 1.31385 17.6374 0.0587528 13.5774 0.139246L13.5972 1.13905ZM26.727 14.4174L25.7272 14.4372L25.8832 22.3077L26.883 22.2879L27.8828 22.268L27.7268 14.3976L26.727 14.4174ZM26.883 22.2879L25.8832 22.3077C25.9668 26.527 24.794 29.6576 22.8069 31.7472C20.8195 33.8369 17.9047 35.0043 14.27 35.0764L14.2898 36.0762L14.3097 37.076C18.3535 36.9958 21.8228 35.6842 24.2561 33.1254C26.6898 30.5664 27.9742 26.879 27.8828 22.268L26.883 22.2879ZM14.2898 36.0762L14.27 35.0764C10.6353 35.1484 7.67653 34.0975 5.60791 32.0881C3.53954 30.079 2.24351 26.9973 2.15986 22.778L1.16005 22.7978L0.160249 22.8177C0.251665 27.4286 1.68127 31.0622 4.2144 33.5228C6.74729 35.9831 10.2658 37.1562 14.3097 37.076L14.2898 36.0762ZM1.16005 22.7978L2.15986 22.778L2.00382 14.9076L1.00402 14.9274L0.0042125 14.9472L0.160249 22.8177L1.16005 22.7978ZM7.33306 14.5138L6.33326 14.5337L6.50071 22.98L7.50052 22.9602L8.50032 22.9404L8.33287 14.494L7.33306 14.5138ZM7.50052 22.9602L6.50071 22.98C6.55045 25.4886 7.16127 27.6359 8.4816 29.1565C9.82778 30.7069 11.7844 31.4609 14.1974 31.4131L14.1776 30.4133L14.1577 29.4135C12.2036 29.4522 10.8688 28.8553 9.99177 27.8452C9.08891 26.8054 8.54478 25.1828 8.50032 22.9404L7.50052 22.9602ZM14.1776 30.4133L14.1974 31.4131C16.6945 31.3636 18.6214 30.4759 19.8824 28.8452C21.1148 27.2514 21.6015 25.0883 21.5538 22.6816L20.554 22.7014L19.5541 22.7212C19.5968 24.8736 19.1508 26.5217 18.3002 27.6218C17.4782 28.6849 16.1717 29.3736 14.1577 29.4135L14.1776 30.4133ZM20.554 22.7014L21.5538 22.6816L21.3863 14.2352L20.3865 14.2551L19.3867 14.2749L19.5541 22.7212L20.554 22.7014ZM20.3865 14.2551L21.3863 14.2352C21.3367 11.7325 20.6096 9.59757 19.251 8.085C17.8784 6.55681 15.943 5.75746 13.6896 5.80213L13.7095 6.80194L13.7293 7.80174C15.4591 7.76745 16.8161 8.36711 17.7631 9.42145C18.7242 10.4914 19.344 12.1225 19.3867 14.2749L20.3865 14.2551ZM13.7095 6.80194L13.6896 5.80213C11.3522 5.84848 9.44835 6.78119 8.1599 8.38973C6.88859 9.97685 6.28565 12.1323 6.33326 14.5337L7.33306 14.5138L8.33287 14.494C8.29199 12.4322 8.81365 10.7727 9.72086 9.64008C10.6109 8.5289 11.9395 7.83722 13.7293 7.80174L13.7095 6.80194ZM29.7211 1.49152L29.7013 0.491712L28.7015 0.511534L28.7213 1.51134L29.7211 1.49152ZM53.5244 1.0196L54.5242 0.999778L54.5044 -2.53766e-05L53.5046 0.0197963L53.5244 1.0196ZM53.6348 6.58651L54.2815 7.34922L54.644 7.04185L54.6346 6.56669L53.6348 6.58651ZM44.4749 14.3536L43.8282 13.5909L43.4657 13.8983L43.4751 14.3734L44.4749 14.3536ZM44.4864 14.9295L43.4865 14.9493L43.5064 15.9491L44.5062 15.9293L44.4864 14.9295ZM29.1875 23.0103L29.1677 22.0105L28.1679 22.0303L28.1877 23.0301L29.1875 23.0103ZM35.5223 22.8847L36.5221 22.8649L36.5023 21.8651L35.5025 21.8849L35.5223 22.8847ZM36.9933 19.5909L35.9935 19.6107L36.0133 20.6106L37.0131 20.5907L36.9933 19.5909ZM36.881 13.928L36.2314 13.1678L35.8718 13.475L35.8812 13.9479L36.881 13.928ZM45.0483 6.94878L45.6979 7.70901L47.8224 5.89358L45.0284 5.94897L45.0483 6.94878ZM29.8353 7.25038L28.8355 7.27021L28.8553 8.27001L29.8551 8.25019L29.8353 7.25038ZM29.7211 1.49152L29.7409 2.49132L53.5442 2.0194L53.5244 1.0196L53.5046 0.0197963L29.7013 0.491712L29.7211 1.49152ZM53.5244 1.0196L52.5246 1.03942L52.635 6.60633L53.6348 6.58651L54.6346 6.56669L54.5242 0.999778L53.5244 1.0196ZM53.6348 6.58651L52.988 5.8238L43.8282 13.5909L44.4749 14.3536L45.1217 15.1163L54.2815 7.34922L53.6348 6.58651ZM44.4749 14.3536L43.4751 14.3734L43.4865 14.9493L44.4864 14.9295L45.4862 14.9097L45.4747 14.3338L44.4749 14.3536ZM44.4864 14.9295L44.5062 15.9293L45.7539 15.9045L45.7341 14.9047L45.7143 13.9049L44.4665 13.9297L44.4864 14.9295ZM45.7341 14.9047L45.7539 15.9045C47.8535 15.8629 49.8172 16.5481 51.2626 17.886C52.6981 19.2147 53.6935 21.2527 53.7491 24.0597L54.749 24.0399L55.7488 24.02C55.6836 20.7322 54.4991 18.1565 52.6212 16.4183C50.7531 14.6892 48.2698 13.8543 45.7143 13.9049L45.7341 14.9047ZM54.749 24.0399L53.7491 24.0597C53.8113 27.1962 52.6773 29.7469 50.7098 31.5413C48.73 33.3469 45.8332 34.4506 42.2823 34.521L42.3021 35.5208L42.3219 36.5206C46.2575 36.4426 49.6517 35.2132 52.0575 33.019C54.4756 30.8137 55.8217 27.6981 55.7488 24.02L54.749 24.0399ZM42.3021 35.5208L42.2823 34.521C38.4714 34.5966 35.4915 33.528 33.4619 31.7469C31.4394 29.972 30.2751 27.4163 30.214 24.3342L29.2142 24.3541L28.2144 24.3739C28.2855 27.9625 29.658 31.0696 32.1427 33.2502C34.6204 35.4245 38.1183 36.604 42.3219 36.5206L42.3021 35.5208ZM29.2142 24.3541L30.214 24.3342L30.1873 22.9905L29.1875 23.0103L28.1877 23.0301L28.2144 24.3739L29.2142 24.3541ZM29.1875 23.0103L29.2073 24.0101L35.5421 23.8845L35.5223 22.8847L35.5025 21.8849L29.1677 22.0105L29.1875 23.0103ZM35.5223 22.8847L34.5225 22.9046L34.5453 24.0563L35.5451 24.0365L36.5449 24.0167L36.5221 22.8649L35.5223 22.8847ZM35.5451 24.0365L34.5453 24.0563C34.5823 25.9207 35.2648 27.6643 36.6031 28.9294C37.9446 30.1977 39.8589 30.9043 42.2096 30.8577L42.1898 29.8579L42.17 28.8581C40.2496 28.8962 38.8738 28.3239 37.977 27.476C37.0769 26.6252 36.5727 25.4157 36.5449 24.0167L35.5451 24.0365ZM42.1898 29.8579L42.2096 30.8577C44.3969 30.8144 46.2254 30.1298 47.5078 28.9134C48.7966 27.6908 49.4509 26.0079 49.414 24.1456L48.4142 24.1654L47.4144 24.1853C47.4412 25.5384 46.9749 26.6622 46.1314 27.4623C45.2815 28.2685 43.9659 28.8225 42.17 28.8581L42.1898 29.8579ZM48.4142 24.1654L49.414 24.1456C49.3771 22.2842 48.6825 20.7971 47.4345 19.807C46.2151 18.8397 44.5857 18.4402 42.8283 18.475L42.8481 19.4749L42.868 20.4747C44.3259 20.4457 45.4477 20.7839 46.1915 21.3739C46.9067 21.9413 47.3875 22.8313 47.4144 24.1853L48.4142 24.1654ZM42.8481 19.4749L42.8283 18.475L36.9735 18.5911L36.9933 19.5909L37.0131 20.5907L42.868 20.4747L42.8481 19.4749ZM36.9933 19.5909L37.9931 19.5711L37.8808 13.9082L36.881 13.928L35.8812 13.9479L35.9935 19.6107L36.9933 19.5909ZM36.881 13.928L37.5307 14.6883L45.6979 7.70901L45.0483 6.94878L44.3986 6.18854L36.2314 13.1678L36.881 13.928ZM45.0483 6.94878L45.0284 5.94897L29.8154 6.25058L29.8353 7.25038L29.8551 8.25019L45.0681 7.94858L45.0483 6.94878ZM29.8353 7.25038L30.8351 7.23056L30.7209 1.47169L29.7211 1.49152L28.7213 1.51134L28.8355 7.27021L29.8353 7.25038Z" fill="#DEDEDE" mask="url(#path-1-outside-1_52_35)"/>
</svg>
