<svg width="59" height="38" viewBox="0 0 59 38" fill="none" xmlns="http://www.w3.org/2000/svg">
<mask id="path-1-outside-1_52_17" maskUnits="userSpaceOnUse" x="-0.73826" y="-1.52021" width="59.7416" height="39.162" fill="black">
<rect fill="white" x="-0.73826" y="-1.52021" width="59.7416" height="39.162"/>
<path d="M1.00402 14.8817C0.834659 6.3394 5.91869 1.24563 13.5972 1.0934C21.2757 0.941165 26.5576 5.82943 26.727 14.3718L26.883 22.2422C27.0581 31.0725 21.9683 35.8783 14.2898 36.0305C6.61134 36.1828 1.33512 31.5824 1.16005 22.7522L1.00402 14.8817ZM7.33306 14.4682L7.50052 22.9145C7.59471 27.6656 9.81042 30.4542 14.1776 30.3676C18.6887 30.2782 20.6443 27.2148 20.554 22.6557L20.3865 14.2094C20.2942 9.55431 17.6927 6.67731 13.7095 6.75628C9.58226 6.83811 7.24458 10.0051 7.33306 14.4682ZM41.3348 1.21561L51.2209 1.01961L51.6414 22.2314L57.1123 22.123L57.2265 27.8819L51.7556 27.9903L51.8869 34.613L45.5521 34.7386L45.4208 28.1159L28.7201 28.447L28.6097 22.8801L41.3348 1.21561ZM44.4187 6.62755L35.2286 22.5568L45.3066 22.357L44.9946 6.61613L44.4187 6.62755Z"/>
</mask>
<path d="M1.00402 14.8817L2.00382 14.8619C1.92318 10.7942 3.09175 7.65668 5.08767 5.52471C7.08202 3.39442 9.99859 2.16494 13.617 2.0932L13.5972 1.0934L13.5774 0.093592C9.51728 0.174086 6.05259 1.56761 3.62764 4.15784C1.20427 6.7464 -0.0845001 10.4269 0.0042125 14.9015L1.00402 14.8817ZM13.5972 1.0934L13.617 2.0932C17.2354 2.02146 20.1984 3.13438 22.2756 5.18394C24.3545 7.23513 25.6465 10.3239 25.7272 14.3916L26.727 14.3718L27.7268 14.3519C27.6381 9.87728 26.2044 6.25076 23.6804 3.76029C21.1546 1.2682 17.6374 0.0130985 13.5774 0.093592L13.5972 1.0934ZM26.727 14.3718L25.7272 14.3916L25.8832 22.262L26.883 22.2422L27.8828 22.2224L27.7268 14.3519L26.727 14.3718ZM26.883 22.2422L25.8832 22.262C25.9668 26.4813 24.794 29.612 22.8069 31.7015C20.8195 33.7913 17.9047 34.9587 14.27 35.0307L14.2898 36.0305L14.3097 37.0303C18.3535 36.9502 21.8228 35.6385 24.2561 33.0798C26.6898 30.5207 27.9742 26.8334 27.8828 22.2224L26.883 22.2422ZM14.2898 36.0305L14.27 35.0307C10.6353 35.1028 7.67653 34.0518 5.60791 32.0425C3.53954 30.0334 2.24351 26.9516 2.15986 22.7324L1.16005 22.7522L0.160249 22.772C0.251665 27.383 1.68127 31.0165 4.2144 33.4771C6.74729 35.9374 10.2658 37.1105 14.3097 37.0303L14.2898 36.0305ZM1.16005 22.7522L2.15986 22.7324L2.00382 14.8619L1.00402 14.8817L0.0042125 14.9015L0.160249 22.772L1.16005 22.7522ZM7.33306 14.4682L6.33326 14.488L6.50071 22.9344L7.50052 22.9145L8.50032 22.8947L8.33287 14.4484L7.33306 14.4682ZM7.50052 22.9145L6.50071 22.9344C6.55045 25.4429 7.16127 27.5902 8.4816 29.1108C9.82778 30.6612 11.7844 31.4153 14.1974 31.3674L14.1776 30.3676L14.1577 29.3678C12.2036 29.4066 10.8688 28.8096 9.99177 27.7996C9.08891 26.7598 8.54478 25.1372 8.50032 22.8947L7.50052 22.9145ZM14.1776 30.3676L14.1974 31.3674C16.6945 31.3179 18.6214 30.4302 19.8824 28.7995C21.1148 27.2057 21.6015 25.0426 21.5538 22.6359L20.554 22.6557L19.5541 22.6756C19.5968 24.828 19.1508 26.4761 18.3002 27.5761C17.4782 28.6392 16.1717 29.3279 14.1577 29.3678L14.1776 30.3676ZM20.554 22.6557L21.5538 22.6359L21.3863 14.1896L20.3865 14.2094L19.3867 14.2292L19.5541 22.6756L20.554 22.6557ZM20.3865 14.2094L21.3863 14.1896C21.3367 11.6869 20.6096 9.55192 19.251 8.03934C17.8784 6.51116 15.943 5.7118 13.6896 5.75648L13.7095 6.75628L13.7293 7.75609C15.4591 7.72179 16.8161 8.32145 17.7631 9.3758C18.7242 10.4458 19.344 12.0768 19.3867 14.2292L20.3865 14.2094ZM13.7095 6.75628L13.6896 5.75648C11.3522 5.80282 9.44835 6.73554 8.1599 8.34408C6.88859 9.9312 6.28565 12.0867 6.33326 14.488L7.33306 14.4682L8.33287 14.4484C8.29199 12.3866 8.81365 10.727 9.72086 9.59443C10.6109 8.48325 11.9395 7.79157 13.7293 7.75609L13.7095 6.75628ZM41.3348 1.21561L41.315 0.215809L40.7558 0.226895L40.4725 0.709147L41.3348 1.21561ZM51.2209 1.01961L52.2207 0.999793L52.2008 -1.04089e-05L51.201 0.0198113L51.2209 1.01961ZM51.6414 22.2314L50.6416 22.2513L50.6614 23.2511L51.6612 23.2312L51.6414 22.2314ZM57.1123 22.123L58.1121 22.1032L58.0923 21.1034L57.0925 21.1232L57.1123 22.123ZM57.2265 27.8819L57.2463 28.8817L58.2461 28.8618L58.2263 27.862L57.2265 27.8819ZM51.7556 27.9903L51.7358 26.9905L50.736 27.0103L50.7558 28.0101L51.7556 27.9903ZM51.8869 34.613L51.9067 35.6128L52.9065 35.593L52.8867 34.5932L51.8869 34.613ZM45.5521 34.7386L44.5523 34.7584L44.5721 35.7582L45.5719 35.7384L45.5521 34.7386ZM45.4208 28.1159L46.4206 28.0961L46.4008 27.0963L45.401 27.1161L45.4208 28.1159ZM28.7201 28.447L27.7203 28.4668L27.7401 29.4666L28.7399 29.4468L28.7201 28.447ZM28.6097 22.8801L27.7475 22.3736L27.6043 22.6173L27.6099 22.8999L28.6097 22.8801ZM44.4187 6.62755L44.3989 5.62774L43.8346 5.63893L43.5525 6.12782L44.4187 6.62755ZM35.2286 22.5568L34.3624 22.0571L33.4771 23.5918L35.2484 23.5566L35.2286 22.5568ZM45.3066 22.357L45.3265 23.3568L46.3263 23.337L46.3064 22.3372L45.3066 22.357ZM44.9946 6.61613L45.9944 6.59631L45.9746 5.59651L44.9747 5.61633L44.9946 6.61613ZM41.3348 1.21561L41.3546 2.21542L51.2407 2.01942L51.2209 1.01961L51.201 0.0198113L41.315 0.215809L41.3348 1.21561ZM51.2209 1.01961L50.2211 1.03944L50.6416 22.2513L51.6414 22.2314L52.6412 22.2116L52.2207 0.999793L51.2209 1.01961ZM51.6414 22.2314L51.6612 23.2312L57.1321 23.1228L57.1123 22.123L57.0925 21.1232L51.6216 21.2316L51.6414 22.2314ZM57.1123 22.123L56.1125 22.1428L56.2267 27.9017L57.2265 27.8819L58.2263 27.862L58.1121 22.1032L57.1123 22.123ZM57.2265 27.8819L57.2067 26.882L51.7358 26.9905L51.7556 27.9903L51.7754 28.9901L57.2463 28.8817L57.2265 27.8819ZM51.7556 27.9903L50.7558 28.0101L50.8871 34.6328L51.8869 34.613L52.8867 34.5932L52.7554 27.9705L51.7556 27.9903ZM51.8869 34.613L51.8671 33.6132L45.5323 33.7388L45.5521 34.7386L45.5719 35.7384L51.9067 35.6128L51.8869 34.613ZM45.5521 34.7386L46.5519 34.7188L46.4206 28.0961L45.4208 28.1159L44.421 28.1357L44.5523 34.7584L45.5521 34.7386ZM45.4208 28.1159L45.401 27.1161L28.7003 27.4472L28.7201 28.447L28.7399 29.4468L45.4406 29.1157L45.4208 28.1159ZM28.7201 28.447L29.7199 28.4272L29.6095 22.8603L28.6097 22.8801L27.6099 22.8999L27.7203 28.4668L28.7201 28.447ZM28.6097 22.8801L29.472 23.3866L42.1971 1.72208L41.3348 1.21561L40.4725 0.709147L27.7475 22.3736L28.6097 22.8801ZM44.4187 6.62755L43.5525 6.12782L34.3624 22.0571L35.2286 22.5568L36.0948 23.0566L45.2849 7.12727L44.4187 6.62755ZM35.2286 22.5568L35.2484 23.5566L45.3265 23.3568L45.3066 22.357L45.2868 21.3572L35.2088 21.557L35.2286 22.5568ZM45.3066 22.357L46.3064 22.3372L45.9944 6.59631L44.9946 6.61613L43.9948 6.63595L44.3068 22.3769L45.3066 22.357ZM44.9946 6.61613L44.9747 5.61633L44.3989 5.62774L44.4187 6.62755L44.4385 7.62735L45.0144 7.61593L44.9946 6.61613Z" fill="#DEDEDE" mask="url(#path-1-outside-1_52_17)"/>
</svg>
