<svg width="56" height="38" viewBox="0 0 56 38" fill="none" xmlns="http://www.w3.org/2000/svg">
<mask id="path-1-outside-1_52_26" maskUnits="userSpaceOnUse" x="-0.73826" y="-1.42651" width="56.7422" height="39.1026" fill="black">
<rect fill="white" x="-0.73826" y="-1.42651" width="56.7422" height="39.1026"/>
<path d="M1.00402 14.916C0.834659 6.37364 5.91869 1.27987 13.5972 1.12764C21.2757 0.975405 26.5576 5.86367 26.727 14.406L26.883 22.2764C27.0581 31.1067 21.9683 35.9125 14.2898 36.0648C6.61134 36.217 1.33512 31.6167 1.16005 22.7864L1.00402 14.916ZM7.33306 14.5024L7.50052 22.9488C7.59471 27.6998 9.81042 30.4885 14.1776 30.4019C18.6887 30.3125 20.6443 27.2491 20.554 22.69L20.3865 14.2436C20.2942 9.58855 17.6927 6.71156 13.7095 6.79053C9.58226 6.87235 7.24458 10.0393 7.33306 14.5024ZM30.105 1.47249L52.9485 1.0196L53.0627 6.77847L36.5539 7.10577L36.7271 15.8401L37.303 15.8286C38.1891 14.5148 39.968 12.2231 44.4792 12.1337C49.7101 12.03 54.4922 15.9199 54.6254 22.6386C54.7757 30.2211 49.8366 35.36 42.3981 35.5075C34.8155 35.6578 29.5412 31.1535 29.4004 24.0509L29.3833 23.1871L35.718 23.0615L35.7276 23.5414C35.8037 27.3806 38.0626 29.9284 42.0938 29.8484C46.0291 29.7704 48.3772 27.1313 48.2963 23.0521C48.2259 19.5008 45.9774 17.481 42.954 17.541C40.5065 17.5895 39.2835 18.862 38.7765 19.9282L30.4742 20.0928L30.105 1.47249Z"/>
</mask>
<path d="M1.00402 14.916L2.00382 14.8961C1.92318 10.8285 3.09175 7.69092 5.08767 5.55895C7.08202 3.42866 9.99859 2.19918 13.617 2.12744L13.5972 1.12764L13.5774 0.127833C9.51728 0.208326 6.05259 1.60185 3.62764 4.19209C1.20427 6.78064 -0.0845001 10.4611 0.0042125 14.9358L1.00402 14.916ZM13.5972 1.12764L13.617 2.12744C17.2354 2.0557 20.1984 3.16862 22.2756 5.21819C24.3545 7.26937 25.6465 10.3581 25.7272 14.4258L26.727 14.406L27.7268 14.3862C27.6381 9.91153 26.2044 6.285 23.6804 3.79453C21.1546 1.30244 17.6374 0.0473392 13.5774 0.127833L13.5972 1.12764ZM26.727 14.406L25.7272 14.4258L25.8832 22.2963L26.883 22.2764L27.8828 22.2566L27.7268 14.3862L26.727 14.406ZM26.883 22.2764L25.8832 22.2963C25.9668 26.5156 24.794 29.6462 22.8069 31.7357C20.8195 33.8255 17.9047 34.9929 14.27 35.065L14.2898 36.0648L14.3097 37.0646C18.3535 36.9844 21.8228 35.6728 24.2561 33.114C26.6898 30.555 27.9742 26.8676 27.8828 22.2566L26.883 22.2764ZM14.2898 36.0648L14.27 35.065C10.6353 35.137 7.67653 34.0861 5.60791 32.0767C3.53954 30.0676 2.24351 26.9859 2.15986 22.7666L1.16005 22.7864L0.160249 22.8062C0.251665 27.4172 1.68127 31.0508 4.2144 33.5113C6.74729 35.9717 10.2658 37.1447 14.3097 37.0646L14.2898 36.0648ZM1.16005 22.7864L2.15986 22.7666L2.00382 14.8961L1.00402 14.916L0.0042125 14.9358L0.160249 22.8062L1.16005 22.7864ZM7.33306 14.5024L6.33326 14.5223L6.50071 22.9686L7.50052 22.9488L8.50032 22.929L8.33287 14.4826L7.33306 14.5024ZM7.50052 22.9488L6.50071 22.9686C6.55045 25.4772 7.16127 27.6245 8.4816 29.1451C9.82778 30.6955 11.7844 31.4495 14.1974 31.4017L14.1776 30.4019L14.1577 29.4021C12.2036 29.4408 10.8688 28.8439 9.99177 27.8338C9.08891 26.794 8.54478 25.1714 8.50032 22.929L7.50052 22.9488ZM14.1776 30.4019L14.1974 31.4017C16.6945 31.3522 18.6214 30.4645 19.8824 28.8338C21.1148 27.24 21.6015 25.0769 21.5538 22.6702L20.554 22.69L19.5541 22.7098C19.5968 24.8622 19.1508 26.5103 18.3002 27.6103C17.4782 28.6735 16.1717 29.3622 14.1577 29.4021L14.1776 30.4019ZM20.554 22.69L21.5538 22.6702L21.3863 14.2238L20.3865 14.2436L19.3867 14.2635L19.5541 22.7098L20.554 22.69ZM20.3865 14.2436L21.3863 14.2238C21.3367 11.7211 20.6096 9.58616 19.251 8.07358C17.8784 6.5454 15.943 5.74605 13.6896 5.79072L13.7095 6.79052L13.7293 7.79033C15.4591 7.75603 16.8161 8.35569 17.7631 9.41004C18.7242 10.48 19.344 12.1111 19.3867 14.2635L20.3865 14.2436ZM13.7095 6.79052L13.6896 5.79072C11.3522 5.83706 9.44835 6.76978 8.1599 8.37832C6.88859 9.96544 6.28565 12.1209 6.33326 14.5223L7.33306 14.5024L8.33287 14.4826C8.29199 12.4208 8.81365 10.7613 9.72086 9.62867C10.6109 8.51749 11.9395 7.82581 13.7293 7.79033L13.7095 6.79052ZM30.105 1.47249L30.0852 0.472687L29.0854 0.492509L29.1052 1.49231L30.105 1.47249ZM52.9485 1.0196L53.9483 0.999782L53.9285 -2.15591e-05L52.9287 0.0198002L52.9485 1.0196ZM53.0627 6.77847L53.0825 7.77828L54.0823 7.75845L54.0625 6.75865L53.0627 6.77847ZM36.5539 7.10577L36.5341 6.10597L35.5343 6.12579L35.5541 7.12559L36.5539 7.10577ZM36.7271 15.8401L35.7273 15.8599L35.7471 16.8597L36.7469 16.8399L36.7271 15.8401ZM37.303 15.8286L37.3228 16.8284L37.8418 16.8181L38.132 16.3878L37.303 15.8286ZM29.3833 23.1871L29.3635 22.1873L28.3637 22.2071L28.3835 23.2069L29.3833 23.1871ZM35.718 23.0615L36.7179 23.0417L36.698 22.0418L35.6982 22.0617L35.718 23.0615ZM38.7765 19.9282L38.7964 20.928L39.4143 20.9158L39.6797 20.3576L38.7765 19.9282ZM30.4742 20.0928L29.4744 20.1127L29.4942 21.1125L30.494 21.0926L30.4742 20.0928ZM30.105 1.47249L30.1248 2.47229L52.9683 2.01941L52.9485 1.0196L52.9287 0.0198002L30.0852 0.472687L30.105 1.47249ZM52.9485 1.0196L51.9487 1.03943L52.0629 6.79829L53.0627 6.77847L54.0625 6.75865L53.9483 0.999782L52.9485 1.0196ZM53.0627 6.77847L53.0429 5.77867L36.5341 6.10597L36.5539 7.10577L36.5738 8.10557L53.0825 7.77828L53.0627 6.77847ZM36.5539 7.10577L35.5541 7.12559L35.7273 15.8599L36.7271 15.8401L37.7269 15.8202L37.5537 7.08595L36.5539 7.10577ZM36.7271 15.8401L36.7469 16.8399L37.3228 16.8284L37.303 15.8286L37.2832 14.8288L36.7073 14.8402L36.7271 15.8401ZM37.303 15.8286L38.132 16.3878C38.5485 15.7703 39.128 14.9948 40.0875 14.3533C41.0375 13.7182 42.4215 13.1747 44.499 13.1335L44.4792 12.1337L44.4593 11.1339C42.0257 11.1821 40.2647 11.8291 38.9759 12.6907C37.6966 13.5459 36.9436 14.5731 36.4739 15.2695L37.303 15.8286ZM44.4792 12.1337L44.499 13.1335C49.1747 13.0408 53.5033 16.4888 53.6256 22.6584L54.6254 22.6386L55.6252 22.6188C55.4811 15.351 50.2456 11.0191 44.4593 11.1339L44.4792 12.1337ZM54.6254 22.6386L53.6256 22.6584C53.6963 26.2235 52.5731 29.1367 50.6337 31.1712C48.6948 33.2052 45.866 34.4386 42.3782 34.5077L42.3981 35.5075L42.4179 36.5073C46.3686 36.429 49.7287 35.0192 52.0814 32.5512C54.4336 30.0837 55.7048 26.6362 55.6252 22.6188L54.6254 22.6386ZM42.3981 35.5075L42.3782 34.5077C38.7874 34.5789 35.8297 33.5482 33.7665 31.7459C31.7128 29.952 30.4655 27.3256 30.4002 24.0311L29.4004 24.0509L28.4006 24.0707C28.4761 27.8788 29.9364 31.0559 32.4507 33.2522C34.9555 35.4402 38.4262 36.5865 42.4179 36.5073L42.3981 35.5075ZM29.4004 24.0509L30.4002 24.0311L30.3831 23.1672L29.3833 23.1871L28.3835 23.2069L28.4006 24.0707L29.4004 24.0509ZM29.3833 23.1871L29.4031 24.1869L35.7379 24.0613L35.718 23.0615L35.6982 22.0617L29.3635 22.1873L29.3833 23.1871ZM35.718 23.0615L34.7182 23.0813L34.7278 23.5612L35.7276 23.5414L36.7274 23.5216L36.7179 23.0417L35.718 23.0615ZM35.7276 23.5414L34.7278 23.5612C34.7695 25.6678 35.4143 27.5309 36.7112 28.8624C38.0174 30.2033 39.876 30.8926 42.1136 30.8482L42.0938 29.8484L42.074 28.8486C40.2805 28.8842 38.994 28.3395 38.1439 27.4668C37.2845 26.5846 36.7617 25.2542 36.7274 23.5216L35.7276 23.5414ZM42.0938 29.8484L42.1136 30.8482C44.3084 30.8047 46.1583 30.0389 47.4421 28.6222C48.7194 27.2128 49.3404 25.2656 49.2961 23.0323L48.2963 23.0521L47.2965 23.072C47.3331 24.9179 46.8205 26.3298 45.9601 27.2792C45.1063 28.2214 43.8145 28.8141 42.074 28.8486L42.0938 29.8484ZM48.2963 23.0521L49.2961 23.0323C49.2568 21.0466 48.6025 19.3889 47.4369 18.2324C46.2705 17.0752 44.6786 16.5066 42.9342 16.5412L42.954 17.541L42.9739 18.5408C44.2529 18.5154 45.297 18.9267 46.0283 19.6522C46.7603 20.3785 47.2655 21.5064 47.2965 23.072L48.2963 23.0521ZM42.954 17.541L42.9342 16.5412C40.0739 16.5979 38.5278 18.1225 37.8734 19.4988L38.7765 19.9282L39.6797 20.3576C40.0392 19.6015 40.9392 18.5811 42.9739 18.5408L42.954 17.541ZM38.7765 19.9282L38.7567 18.9284L30.4543 19.093L30.4742 20.0928L30.494 21.0926L38.7964 20.928L38.7765 19.9282ZM30.4742 20.0928L31.474 20.073L31.1048 1.45267L30.105 1.47249L29.1052 1.49231L29.4744 20.1127L30.4742 20.0928Z" fill="#DEDEDE" mask="url(#path-1-outside-1_52_26)"/>
</svg>
